# xmcd
#
# Track frame offsets:
#	150
#	25582
#	36982
#	57465
#	67147
#	89852
#	103887
#	116897
#	132517
#	146002
#	157597
#	176317
#	195740
#	213967
#
# Disc length: 3188 seconds
#
# Revision: 1
# Processed by: cddbd v1.5.2PL0 Copyright (c) Steve Scherf et al.
# Submitted via: audiograbber 1.83.01
#
DISCID=d20c720e
DTITLE=Volupsije - Vzdaleny svet
DYEAR=1998
DGENRE=Country
TTITLE0=Vzdaleny svet
TTITLE1=Sliby chyby
TTITLE2=Carolina
TTITLE3=Honky tonky
TTITLE4=House of rising sun
TTITLE5=Louceni
TTITLE6=Hraj mi blues
TTITLE7=Tulak po hvezdach
TTITLE8=Mexiko
TTITLE9=Vsude dobre
TTITLE10=Kontrasty
TTITLE11=Vobycejnej chlap
TTITLE12=California
TTITLE13=Romance
EXTD=
EXTT0=
EXTT1=
EXTT2=
EXTT3=
EXTT4=
EXTT5=
EXTT6=
EXTT7=
EXTT8=
EXTT9=
EXTT10=
EXTT11=
EXTT12=
EXTT13=
PLAYORDER=
